<svg xmlns="http://www.w3.org/2000/svg" viewBox="0 0 512 512">
  <rect width="512" height="512" rx="128" fill="#6d28d9"/>
  <path fill="#ffffff" d="M352 160H160c-17.6 0-32 14.4-32 32v128c0 17.6 14.4 32 32 32h192c17.6 0 32-14.4 32-32V192c0-17.6-14.4-32-32-32zm0 160H160V192h192v128z"/>
  <path fill="#ffffff" d="M304 224h-96c-8.8 0-16-7.2-16-16s7.2-16 16-16h96c8.8 0 16 7.2 16 16s-7.2 16-16 16zm0 64h-96c-8.8 0-16-7.2-16-16s7.2-16 16-16h96c8.8 0 16 7.2 16 16s-7.2 16-16 16z"/>
  <path fill="#3b82f6" d="M350 360l-30-70-15 40-20-40-15 20h-40v30h50l10-15 15 35 25-50 15 40z"/>
</svg>
